{"asset":{"generator":"Khronos glTF Blender I/O v1.2.75","version":"2.0"},"meshes":[{"name":"LOD0","primitives":[{"attributes":{"POSITION":0,"NORMAL":1,"TEXCOORD_0":2},"indices":3,"mode":4}]}],"accessors":[{"bufferView":0,"componentType":5126,"count":6830,"type":"VEC3","max":[4.624654769897461,13.461395263671875,4.522775650024414],"min":[-4.911166191101074,-0.5835790634155273,-5.152161598205566]},{"bufferView":1,"componentType":5126,"count":6830,"type":"VEC3"},{"bufferView":2,"componentType":5126,"count":6830,"type":"VEC2"},{"bufferView":3,"componentType":5123,"count":13014,"type":"SCALAR"}],"bufferViews":[{"buffer":0,"byteLength":81960,"byteOffset":0},{"buffer":0,"byteLength":81960,"byteOffset":81960},{"buffer":0,"byteLength":54640,"byteOffset":163920},{"buffer":0,"byteLength":26028,"byteOffset":218560}],"buffers":[{"byteLength":244588,"uri":"data:application/octet-stream;base64,"}],"__mtime__":"2020-07-05T13:02:45.000Z"}
