{"asset":{"generator":"Khronos glTF Blender I/O v1.2.75","version":"2.0"},"meshes":[{"name":"LOD0","primitives":[{"attributes":{"POSITION":0,"NORMAL":1,"TEXCOORD_0":2},"indices":3,"mode":4}]}],"accessors":[{"bufferView":0,"componentType":5126,"count":248,"type":"VEC3","max":[0.6517499685287476,0.2789381444454193,0.6091300249099731],"min":[-0.6738603115081787,-0.1506251096725464,-0.6259695291519165]},{"bufferView":1,"componentType":5126,"count":248,"type":"VEC3"},{"bufferView":2,"componentType":5126,"count":248,"type":"VEC2"},{"bufferView":3,"componentType":5123,"count":990,"type":"SCALAR"}],"bufferViews":[{"buffer":0,"byteLength":2976,"byteOffset":0},{"buffer":0,"byteLength":2976,"byteOffset":2976},{"buffer":0,"byteLength":1984,"byteOffset":5952},{"buffer":0,"byteLength":1980,"byteOffset":7936}],"buffers":[{"byteLength":9916,"uri":"data:application/octet-stream;base64,"}],"__mtime__":"2020-07-05T13:01:49.000Z"}
