{"asset":{"generator":"Khronos glTF Blender I/O v1.2.75","version":"2.0"},"meshes":[{"name":"Broadleaf_5","primitives":[{"attributes":{"POSITION":0,"NORMAL":1,"TEXCOORD_0":2},"indices":3,"mode":4}]}],"accessors":[{"bufferView":0,"componentType":5126,"count":0,"type":"VEC3","max":[0,0,0],"min":[0,0,0]},{"bufferView":1,"componentType":5126,"count":0,"type":"VEC3"},{"bufferView":2,"componentType":5126,"count":0,"type":"VEC2"},{"bufferView":3,"componentType":5123,"count":0,"type":"SCALAR"}],"bufferViews":[{"buffer":0,"byteLength":0,"byteOffset":0},{"buffer":0,"byteLength":0,"byteOffset":0},{"buffer":0,"byteLength":0,"byteOffset":0},{"buffer":0,"byteLength":0,"byteOffset":0}],"buffers":[{"byteLength":0,"uri":"data:application/octet-stream;base64,"}],"__mtime__":"2020-07-05T13:01:41.000Z"}
