{"asset":{"generator":"Khronos glTF Blender I/O v1.2.75","version":"2.0"},"meshes":[{"name":"LOD0","primitives":[{"attributes":{"POSITION":0,"NORMAL":1,"TEXCOORD_0":2},"indices":3,"mode":4}]}],"accessors":[{"bufferView":0,"componentType":5126,"count":8187,"type":"VEC3","max":[6.541094779968262,15.261419296264648,6.305234432220459],"min":[-6.33210563659668,-0.6081838607788086,-6.522190570831299]},{"bufferView":1,"componentType":5126,"count":8187,"type":"VEC3"},{"bufferView":2,"componentType":5126,"count":8187,"type":"VEC2"},{"bufferView":3,"componentType":5123,"count":16410,"type":"SCALAR"}],"bufferViews":[{"buffer":0,"byteLength":98244,"byteOffset":0},{"buffer":0,"byteLength":98244,"byteOffset":98244},{"buffer":0,"byteLength":65496,"byteOffset":196488},{"buffer":0,"byteLength":32820,"byteOffset":261984}],"buffers":[{"byteLength":294804,"uri":"data:application/octet-stream;base64,"}],"__mtime__":"2020-07-05T13:01:41.000Z"}
