{"asset":{"generator":"Khronos glTF Blender I/O v1.2.75","version":"2.0"},"meshes":[{"name":"LOD0","primitives":[{"attributes":{"POSITION":0,"NORMAL":1,"TEXCOORD_0":2},"indices":3,"mode":4}]}],"accessors":[{"bufferView":0,"componentType":5126,"count":7791,"type":"VEC3","max":[4.846900939941406,15.55296516418457,4.685403823852539],"min":[-4.5921173095703125,-0.5838446617126465,-4.831723213195801]},{"bufferView":1,"componentType":5126,"count":7791,"type":"VEC3"},{"bufferView":2,"componentType":5126,"count":7791,"type":"VEC2"},{"bufferView":3,"componentType":5123,"count":14754,"type":"SCALAR"}],"bufferViews":[{"buffer":0,"byteLength":93492,"byteOffset":0},{"buffer":0,"byteLength":93492,"byteOffset":93492},{"buffer":0,"byteLength":62328,"byteOffset":186984},{"buffer":0,"byteLength":29508,"byteOffset":249312}],"buffers":[{"byteLength":278820,"uri":"data:application/octet-stream;base64,"}],"__mtime__":"2020-07-05T13:02:41.000Z"}
