{"asset":{"generator":"Khronos glTF Blender I/O v1.2.75","version":"2.0"},"meshes":[{"name":"LOD0","primitives":[{"attributes":{"POSITION":0,"NORMAL":1,"TEXCOORD_0":2},"indices":3,"mode":4}]}],"accessors":[{"bufferView":0,"componentType":5126,"count":1830,"type":"VEC3","max":[3.769035816192627,12.680394172668457,3.435039520263672],"min":[-3.632380962371826,-0.5252218246459961,-3.933640480041504]},{"bufferView":1,"componentType":5126,"count":1830,"type":"VEC3"},{"bufferView":2,"componentType":5126,"count":1830,"type":"VEC2"},{"bufferView":3,"componentType":5123,"count":6306,"type":"SCALAR"}],"bufferViews":[{"buffer":0,"byteLength":21960,"byteOffset":0},{"buffer":0,"byteLength":21960,"byteOffset":21960},{"buffer":0,"byteLength":14640,"byteOffset":43920},{"buffer":0,"byteLength":12612,"byteOffset":58560}],"buffers":[{"byteLength":71172,"uri":"data:application/octet-stream;base64,"}],"__mtime__":"2020-07-05T13:01:20.000Z"}
