{"asset":{"generator":"Khronos glTF Blender I/O v1.2.75","version":"2.0"},"meshes":[{"name":"LOD0","primitives":[{"attributes":{"POSITION":0,"NORMAL":1,"TEXCOORD_0":2},"indices":3,"mode":4}]}],"accessors":[{"bufferView":0,"componentType":5126,"count":169,"type":"VEC3","max":[1.1058484315872192,1.090430736541748,1.0973165035247803],"min":[-1.1285549402236938,-0.3298978805541992,-1.0810468196868896]},{"bufferView":1,"componentType":5126,"count":169,"type":"VEC3"},{"bufferView":2,"componentType":5126,"count":169,"type":"VEC2"},{"bufferView":3,"componentType":5123,"count":870,"type":"SCALAR"}],"bufferViews":[{"buffer":0,"byteLength":2028,"byteOffset":0},{"buffer":0,"byteLength":2028,"byteOffset":2028},{"buffer":0,"byteLength":1352,"byteOffset":4056},{"buffer":0,"byteLength":1740,"byteOffset":5408}],"buffers":[{"byteLength":7148,"uri":"data:application/octet-stream;base64,"}],"__mtime__":"2020-07-05T13:01:47.000Z"}
