{"asset":{"generator":"Khronos glTF Blender I/O v1.2.75","version":"2.0"},"meshes":[{"name":"LOD0","primitives":[{"attributes":{"POSITION":0,"NORMAL":1,"TEXCOORD_0":2},"indices":3,"mode":4}]}],"accessors":[{"bufferView":0,"componentType":5126,"count":3125,"type":"VEC3","max":[1.226808786392212,1.9930274486541748,1.0527268648147583],"min":[-1.350400686264038,-0.23360759019851685,-1.2261093854904175]},{"bufferView":1,"componentType":5126,"count":3125,"type":"VEC3"},{"bufferView":2,"componentType":5126,"count":3125,"type":"VEC2"},{"bufferView":3,"componentType":5123,"count":5958,"type":"SCALAR"}],"bufferViews":[{"buffer":0,"byteLength":37500,"byteOffset":0},{"buffer":0,"byteLength":37500,"byteOffset":37500},{"buffer":0,"byteLength":25000,"byteOffset":75000},{"buffer":0,"byteLength":11916,"byteOffset":100000}],"buffers":[{"byteLength":111916,"uri":"data:application/octet-stream;base64,"}],"__mtime__":"2020-07-05T13:02:42.000Z"}
