{"asset":{"generator":"Khronos glTF Blender I/O v1.2.75","version":"2.0"},"meshes":[{"name":"LOD0","primitives":[{"attributes":{"POSITION":0,"NORMAL":1,"TEXCOORD_0":2},"indices":3,"mode":4}]}],"accessors":[{"bufferView":0,"componentType":5126,"count":7417,"type":"VEC3","max":[3.0412445068359375,13.50648307800293,2.96767258644104],"min":[-3.017449378967285,-0.5422754287719727,-3.1996963024139404]},{"bufferView":1,"componentType":5126,"count":7417,"type":"VEC3"},{"bufferView":2,"componentType":5126,"count":7417,"type":"VEC2"},{"bufferView":3,"componentType":5123,"count":13560,"type":"SCALAR"}],"bufferViews":[{"buffer":0,"byteLength":89004,"byteOffset":0},{"buffer":0,"byteLength":89004,"byteOffset":89004},{"buffer":0,"byteLength":59336,"byteOffset":178008},{"buffer":0,"byteLength":27120,"byteOffset":237344}],"buffers":[{"byteLength":264464,"uri":"data:application/octet-stream;base64,"}],"__mtime__":"2020-07-05T13:01:19.000Z"}
