{"asset":{"generator":"Khronos glTF Blender I/O v1.2.75","version":"2.0"},"meshes":[{"name":"LOD0","primitives":[{"attributes":{"POSITION":0,"NORMAL":1,"TEXCOORD_0":2},"indices":3,"mode":4}]}],"accessors":[{"bufferView":0,"componentType":5126,"count":1818,"type":"VEC3","max":[1.9434785842895508,9.46788501739502,2.1210622787475586],"min":[-2.1218643188476562,-0.24195289611816406,-1.9520087242126465]},{"bufferView":1,"componentType":5126,"count":1818,"type":"VEC3"},{"bufferView":2,"componentType":5126,"count":1818,"type":"VEC2"},{"bufferView":3,"componentType":5123,"count":5670,"type":"SCALAR"}],"bufferViews":[{"buffer":0,"byteLength":21816,"byteOffset":0},{"buffer":0,"byteLength":21816,"byteOffset":21816},{"buffer":0,"byteLength":14544,"byteOffset":43632},{"buffer":0,"byteLength":11340,"byteOffset":58176}],"buffers":[{"byteLength":69516,"uri":"data:application/octet-stream;base64,"}],"__mtime__":"2020-07-05T13:01:36.000Z"}
