{"asset":{"generator":"Khronos glTF Blender I/O v1.2.75","version":"2.0"},"meshes":[{"name":"LOD0","primitives":[{"attributes":{"POSITION":0,"NORMAL":1,"TEXCOORD_0":2},"indices":3,"mode":4}]}],"accessors":[{"bufferView":0,"componentType":5126,"count":192,"type":"VEC3","max":[1.2254655361175537,0.5519040822982788,1.1791809797286987],"min":[-1.1850340366363525,-0.030637145042419434,-1.2203518152236938]},{"bufferView":1,"componentType":5126,"count":192,"type":"VEC3"},{"bufferView":2,"componentType":5126,"count":192,"type":"VEC2"},{"bufferView":3,"componentType":5123,"count":288,"type":"SCALAR"}],"bufferViews":[{"buffer":0,"byteLength":2304,"byteOffset":0},{"buffer":0,"byteLength":2304,"byteOffset":2304},{"buffer":0,"byteLength":1536,"byteOffset":4608},{"buffer":0,"byteLength":576,"byteOffset":6144}],"buffers":[{"byteLength":6720,"uri":"data:application/octet-stream;base64,"}],"__mtime__":"2020-07-05T13:01:21.000Z"}
