{"asset":{"generator":"Khronos glTF Blender I/O v1.2.75","version":"2.0"},"meshes":[{"name":"LOD0","primitives":[{"attributes":{"POSITION":0,"NORMAL":1,"TEXCOORD_0":2},"indices":3,"mode":4}]}],"accessors":[{"bufferView":0,"componentType":5126,"count":3358,"type":"VEC3","max":[3.6295299530029297,10.413140296936035,3.5774331092834473],"min":[-3.783993721008301,-0.5848398208618164,-4.115028381347656]},{"bufferView":1,"componentType":5126,"count":3358,"type":"VEC3"},{"bufferView":2,"componentType":5126,"count":3358,"type":"VEC2"},{"bufferView":3,"componentType":5123,"count":6498,"type":"SCALAR"}],"bufferViews":[{"buffer":0,"byteLength":40296,"byteOffset":0},{"buffer":0,"byteLength":40296,"byteOffset":40296},{"buffer":0,"byteLength":26864,"byteOffset":80592},{"buffer":0,"byteLength":12996,"byteOffset":107456}],"buffers":[{"byteLength":120452,"uri":"data:application/octet-stream;base64,"}],"__mtime__":"2020-07-05T13:01:02.000Z"}
