{"asset":{"generator":"Khronos glTF Blender I/O v1.2.75","version":"2.0"},"meshes":[{"name":"LOD0","primitives":[{"attributes":{"POSITION":0,"NORMAL":1,"TEXCOORD_0":2},"indices":3,"mode":4}]}],"accessors":[{"bufferView":0,"componentType":5126,"count":1369,"type":"VEC3","max":[3.563046455383301,10.185722351074219,2.977857828140259],"min":[-3.547396659851074,-0.5272035598754883,-3.91440749168396]},{"bufferView":1,"componentType":5126,"count":1369,"type":"VEC3"},{"bufferView":2,"componentType":5126,"count":1369,"type":"VEC2"},{"bufferView":3,"componentType":5123,"count":4938,"type":"SCALAR"}],"bufferViews":[{"buffer":0,"byteLength":16428,"byteOffset":0},{"buffer":0,"byteLength":16428,"byteOffset":16428},{"buffer":0,"byteLength":10952,"byteOffset":32856},{"buffer":0,"byteLength":9876,"byteOffset":43808}],"buffers":[{"byteLength":53684,"uri":"data:application/octet-stream;base64,"}],"__mtime__":"2020-07-05T13:01:53.000Z"}
