{"asset":{"generator":"Khronos glTF Blender I/O v1.2.75","version":"2.0"},"meshes":[{"name":"LOD0","primitives":[{"attributes":{"POSITION":0,"NORMAL":1,"TEXCOORD_0":2},"indices":3,"mode":4}]}],"accessors":[{"bufferView":0,"componentType":5126,"count":144,"type":"VEC3","max":[0.5918101072311401,1.6890100240707397,0.6006814241409302],"min":[-0.7529300451278687,-0.5069743394851685,-0.7327882051467896]},{"bufferView":1,"componentType":5126,"count":144,"type":"VEC3"},{"bufferView":2,"componentType":5126,"count":144,"type":"VEC2"},{"bufferView":3,"componentType":5123,"count":672,"type":"SCALAR"}],"bufferViews":[{"buffer":0,"byteLength":1728,"byteOffset":0},{"buffer":0,"byteLength":1728,"byteOffset":1728},{"buffer":0,"byteLength":1152,"byteOffset":3456},{"buffer":0,"byteLength":1344,"byteOffset":4608}],"buffers":[{"byteLength":5952,"uri":"data:application/octet-stream;base64,"}],"__mtime__":"2020-07-05T13:02:26.000Z"}
