{"asset":{"generator":"Khronos glTF Blender I/O v1.2.75","version":"2.0"},"meshes":[{"name":"LOD0","primitives":[{"attributes":{"POSITION":0,"NORMAL":1,"TEXCOORD_0":2},"indices":3,"mode":4}]}],"accessors":[{"bufferView":0,"componentType":5126,"count":954,"type":"VEC3","max":[2.2986397743225098,7.902552127838135,2.532986640930176],"min":[-2.609560489654541,-0.5263562202453613,-2.6859097480773926]},{"bufferView":1,"componentType":5126,"count":954,"type":"VEC3"},{"bufferView":2,"componentType":5126,"count":954,"type":"VEC2"},{"bufferView":3,"componentType":5123,"count":3114,"type":"SCALAR"}],"bufferViews":[{"buffer":0,"byteLength":11448,"byteOffset":0},{"buffer":0,"byteLength":11448,"byteOffset":11448},{"buffer":0,"byteLength":7632,"byteOffset":22896},{"buffer":0,"byteLength":6228,"byteOffset":30528}],"buffers":[{"byteLength":36756,"uri":"data:application/octet-stream;base64,"}],"__mtime__":"2020-07-05T13:01:58.000Z"}
