{"asset":{"generator":"Khronos glTF Blender I/O v1.2.75","version":"2.0"},"meshes":[{"name":"LOD0","primitives":[{"attributes":{"POSITION":0,"NORMAL":1,"TEXCOORD_0":2},"indices":3,"mode":4}]}],"accessors":[{"bufferView":0,"componentType":5126,"count":215,"type":"VEC3","max":[1.483471155166626,5.926856517791748,1.3577070236206055],"min":[-1.5216648578643799,-0.8630175590515137,-1.4357514381408691]},{"bufferView":1,"componentType":5126,"count":215,"type":"VEC3"},{"bufferView":2,"componentType":5126,"count":215,"type":"VEC2"},{"bufferView":3,"componentType":5123,"count":1062,"type":"SCALAR"}],"bufferViews":[{"buffer":0,"byteLength":2580,"byteOffset":0},{"buffer":0,"byteLength":2580,"byteOffset":2580},{"buffer":0,"byteLength":1720,"byteOffset":5160},{"buffer":0,"byteLength":2124,"byteOffset":6880}],"buffers":[{"byteLength":9004,"uri":"data:application/octet-stream;base64,"}],"__mtime__":"2020-07-05T13:02:46.000Z"}
