{"asset":{"generator":"Khronos glTF Blender I/O v1.2.75","version":"2.0"},"meshes":[{"name":"LOD0","primitives":[{"attributes":{"POSITION":0,"NORMAL":1,"TEXCOORD_0":2},"indices":3,"mode":4}]}],"accessors":[{"bufferView":0,"componentType":5126,"count":223,"type":"VEC3","max":[0.9458204507827759,4.8442230224609375,1.6057627201080322],"min":[-1.0317726135253906,-1.2256468534469604,-1.5787396430969238]},{"bufferView":1,"componentType":5126,"count":223,"type":"VEC3"},{"bufferView":2,"componentType":5126,"count":223,"type":"VEC2"},{"bufferView":3,"componentType":5123,"count":1170,"type":"SCALAR"}],"bufferViews":[{"buffer":0,"byteLength":2676,"byteOffset":0},{"buffer":0,"byteLength":2676,"byteOffset":2676},{"buffer":0,"byteLength":1784,"byteOffset":5352},{"buffer":0,"byteLength":2340,"byteOffset":7136}],"buffers":[{"byteLength":9476,"uri":"data:application/octet-stream;base64,"}],"__mtime__":"2020-07-05T13:02:34.000Z"}
