{"asset":{"generator":"Khronos glTF Blender I/O v1.2.75","version":"2.0"},"meshes":[{"name":"LOD0","primitives":[{"attributes":{"POSITION":0,"NORMAL":1,"TEXCOORD_0":2},"indices":3,"mode":4}]}],"accessors":[{"bufferView":0,"componentType":5126,"count":84,"type":"VEC3","max":[1.1488280296325684,0.6693488359451294,1.1564174890518188],"min":[-1.1436562538146973,-0.02457326650619507,-1.132508397102356]},{"bufferView":1,"componentType":5126,"count":84,"type":"VEC3"},{"bufferView":2,"componentType":5126,"count":84,"type":"VEC2"},{"bufferView":3,"componentType":5123,"count":126,"type":"SCALAR"}],"bufferViews":[{"buffer":0,"byteLength":1008,"byteOffset":0},{"buffer":0,"byteLength":1008,"byteOffset":1008},{"buffer":0,"byteLength":672,"byteOffset":2016},{"buffer":0,"byteLength":252,"byteOffset":2688}],"buffers":[{"byteLength":2940,"uri":"data:application/octet-stream;base64,"}],"__mtime__":"2020-07-05T13:01:17.000Z"}
