{"asset":{"generator":"Khronos glTF Blender I/O v1.2.75","version":"2.0"},"meshes":[{"name":"LOD0","primitives":[{"attributes":{"POSITION":0,"NORMAL":1,"TEXCOORD_0":2},"indices":3,"mode":4}]}],"accessors":[{"bufferView":0,"componentType":5126,"count":2415,"type":"VEC3","max":[3.540487289428711,12.750566482543945,3.8854992389678955],"min":[-3.8294835090637207,-0.2348480224609375,-3.8608758449554443]},{"bufferView":1,"componentType":5126,"count":2415,"type":"VEC3"},{"bufferView":2,"componentType":5126,"count":2415,"type":"VEC2"},{"bufferView":3,"componentType":5123,"count":6168,"type":"SCALAR"}],"bufferViews":[{"buffer":0,"byteLength":28980,"byteOffset":0},{"buffer":0,"byteLength":28980,"byteOffset":28980},{"buffer":0,"byteLength":19320,"byteOffset":57960},{"buffer":0,"byteLength":12336,"byteOffset":77280}],"buffers":[{"byteLength":89616,"uri":"data:application/octet-stream;base64,"}],"__mtime__":"2020-07-05T13:01:50.000Z"}
