{"asset":{"generator":"Khronos glTF Blender I/O v1.2.75","version":"2.0"},"meshes":[{"name":"LOD0","primitives":[{"attributes":{"POSITION":0,"NORMAL":1,"TEXCOORD_0":2},"indices":3,"mode":4}]}],"accessors":[{"bufferView":0,"componentType":5126,"count":1845,"type":"VEC3","max":[2.796381711959839,11.439014434814453,2.847456932067871],"min":[-2.8356683254241943,-0.24996471405029297,-3.073666572570801]},{"bufferView":1,"componentType":5126,"count":1845,"type":"VEC3"},{"bufferView":2,"componentType":5126,"count":1845,"type":"VEC2"},{"bufferView":3,"componentType":5123,"count":5103,"type":"SCALAR"}],"bufferViews":[{"buffer":0,"byteLength":22140,"byteOffset":0},{"buffer":0,"byteLength":22140,"byteOffset":22140},{"buffer":0,"byteLength":14760,"byteOffset":44280},{"buffer":0,"byteLength":10206,"byteOffset":59040}],"buffers":[{"byteLength":69246,"uri":"data:application/octet-stream;base64,"}],"__mtime__":"2020-07-05T13:01:35.000Z"}
