{"asset":{"generator":"Khronos glTF Blender I/O v1.2.75","version":"2.0"},"meshes":[{"name":"LOD0","primitives":[{"attributes":{"POSITION":0,"NORMAL":1,"TEXCOORD_0":2},"indices":3,"mode":4}]}],"accessors":[{"bufferView":0,"componentType":5126,"count":115,"type":"VEC3","max":[0.6952202320098877,1.1476551294326782,0.5930283069610596],"min":[-0.6911323070526123,-0.45332491397857666,-0.640113115310669]},{"bufferView":1,"componentType":5126,"count":115,"type":"VEC3"},{"bufferView":2,"componentType":5126,"count":115,"type":"VEC2"},{"bufferView":3,"componentType":5123,"count":540,"type":"SCALAR"}],"bufferViews":[{"buffer":0,"byteLength":1380,"byteOffset":0},{"buffer":0,"byteLength":1380,"byteOffset":1380},{"buffer":0,"byteLength":920,"byteOffset":2760},{"buffer":0,"byteLength":1080,"byteOffset":3680}],"buffers":[{"byteLength":4760,"uri":"data:application/octet-stream;base64,"}],"__mtime__":"2020-07-05T13:02:16.000Z"}
