{"asset":{"generator":"Khronos glTF Blender I/O v1.2.75","version":"2.0"},"meshes":[{"name":"LOD0","primitives":[{"attributes":{"POSITION":0,"NORMAL":1,"TEXCOORD_0":2},"indices":3,"mode":4}]}],"accessors":[{"bufferView":0,"componentType":5126,"count":1913,"type":"VEC3","max":[3.5108494758605957,13.294639587402344,3.3370919227600098],"min":[-2.709559917449951,-0.5254611968994141,-3.235781192779541]},{"bufferView":1,"componentType":5126,"count":1913,"type":"VEC3"},{"bufferView":2,"componentType":5126,"count":1913,"type":"VEC2"},{"bufferView":3,"componentType":5123,"count":6042,"type":"SCALAR"}],"bufferViews":[{"buffer":0,"byteLength":22956,"byteOffset":0},{"buffer":0,"byteLength":22956,"byteOffset":22956},{"buffer":0,"byteLength":15304,"byteOffset":45912},{"buffer":0,"byteLength":12084,"byteOffset":61216}],"buffers":[{"byteLength":73300,"uri":"data:application/octet-stream;base64,"}],"__mtime__":"2020-07-05T13:02:41.000Z"}
