{"asset":{"generator":"Khronos glTF Blender I/O v1.2.75","version":"2.0"},"meshes":[{"name":"LOD0","primitives":[{"attributes":{"POSITION":0,"NORMAL":1,"TEXCOORD_0":2},"indices":3,"mode":4}]}],"accessors":[{"bufferView":0,"componentType":5126,"count":5137,"type":"VEC3","max":[2.4192609786987305,9.584778785705566,2.4685721397399902],"min":[-2.273087501525879,-0.4399261474609375,-2.5472207069396973]},{"bufferView":1,"componentType":5126,"count":5137,"type":"VEC3"},{"bufferView":2,"componentType":5126,"count":5137,"type":"VEC2"},{"bufferView":3,"componentType":5123,"count":9294,"type":"SCALAR"}],"bufferViews":[{"buffer":0,"byteLength":61644,"byteOffset":0},{"buffer":0,"byteLength":61644,"byteOffset":61644},{"buffer":0,"byteLength":41096,"byteOffset":123288},{"buffer":0,"byteLength":18588,"byteOffset":164384}],"buffers":[{"byteLength":182972,"uri":"data:application/octet-stream;base64,"}],"__mtime__":"2020-07-05T13:02:31.000Z"}
