{"asset":{"generator":"Khronos glTF Blender I/O v1.2.75","version":"2.0"},"meshes":[{"name":"LOD0","primitives":[{"attributes":{"POSITION":0,"NORMAL":1,"TEXCOORD_0":2},"indices":3,"mode":4}]}],"accessors":[{"bufferView":0,"componentType":5126,"count":6819,"type":"VEC3","max":[3.562959909439087,12.616415977478027,3.29048490524292],"min":[-3.380664587020874,-0.5692481994628906,-3.512063503265381]},{"bufferView":1,"componentType":5126,"count":6819,"type":"VEC3"},{"bufferView":2,"componentType":5126,"count":6819,"type":"VEC2"},{"bufferView":3,"componentType":5123,"count":12336,"type":"SCALAR"}],"bufferViews":[{"buffer":0,"byteLength":81828,"byteOffset":0},{"buffer":0,"byteLength":81828,"byteOffset":81828},{"buffer":0,"byteLength":54552,"byteOffset":163656},{"buffer":0,"byteLength":24672,"byteOffset":218208}],"buffers":[{"byteLength":242880,"uri":"data:application/octet-stream;base64,"}],"__mtime__":"2020-07-05T13:01:37.000Z"}
