{"asset":{"generator":"Khronos glTF Blender I/O v1.2.75","version":"2.0"},"meshes":[{"name":"LOD0","primitives":[{"attributes":{"POSITION":0,"NORMAL":1,"TEXCOORD_0":2},"indices":3,"mode":4}]}],"accessors":[{"bufferView":0,"componentType":5126,"count":3775,"type":"VEC3","max":[2.2369744777679443,8.758750915527344,2.335137367248535],"min":[-2.2236602306365967,-0.4429044723510742,-2.3100714683532715]},{"bufferView":1,"componentType":5126,"count":3775,"type":"VEC3"},{"bufferView":2,"componentType":5126,"count":3775,"type":"VEC2"},{"bufferView":3,"componentType":5123,"count":7020,"type":"SCALAR"}],"bufferViews":[{"buffer":0,"byteLength":45300,"byteOffset":0},{"buffer":0,"byteLength":45300,"byteOffset":45300},{"buffer":0,"byteLength":30200,"byteOffset":90600},{"buffer":0,"byteLength":14040,"byteOffset":120800}],"buffers":[{"byteLength":134840,"uri":"data:application/octet-stream;base64,"}],"__mtime__":"2020-07-05T13:01:03.000Z"}
