{"asset":{"generator":"Khronos glTF Blender I/O v1.2.75","version":"2.0"},"meshes":[{"name":"LOD0","primitives":[{"attributes":{"POSITION":0,"NORMAL":1,"TEXCOORD_0":2},"indices":3,"mode":4}]}],"accessors":[{"bufferView":0,"componentType":5126,"count":6474,"type":"VEC3","max":[2.642566442489624,11.536770820617676,2.46897554397583],"min":[-2.6963369846343994,-0.48700618743896484,-2.819485664367676]},{"bufferView":1,"componentType":5126,"count":6474,"type":"VEC3"},{"bufferView":2,"componentType":5126,"count":6474,"type":"VEC2"},{"bufferView":3,"componentType":5123,"count":11670,"type":"SCALAR"}],"bufferViews":[{"buffer":0,"byteLength":77688,"byteOffset":0},{"buffer":0,"byteLength":77688,"byteOffset":77688},{"buffer":0,"byteLength":51792,"byteOffset":155376},{"buffer":0,"byteLength":23340,"byteOffset":207168}],"buffers":[{"byteLength":230508,"uri":"data:application/octet-stream;base64,"}],"__mtime__":"2020-07-05T13:01:10.000Z"}
