{"asset":{"generator":"Khronos glTF Blender I/O v1.2.75","version":"2.0"},"meshes":[{"name":"LOD0","primitives":[{"attributes":{"POSITION":0,"NORMAL":1,"TEXCOORD_0":2},"indices":3,"mode":4}]}],"accessors":[{"bufferView":0,"componentType":5126,"count":2259,"type":"VEC3","max":[2.6637582778930664,14.951010704040527,2.5613744258880615],"min":[-2.972637176513672,-0.25015735626220703,-3.1062533855438232]},{"bufferView":1,"componentType":5126,"count":2259,"type":"VEC3"},{"bufferView":2,"componentType":5126,"count":2259,"type":"VEC2"},{"bufferView":3,"componentType":5123,"count":6456,"type":"SCALAR"}],"bufferViews":[{"buffer":0,"byteLength":27108,"byteOffset":0},{"buffer":0,"byteLength":27108,"byteOffset":27108},{"buffer":0,"byteLength":18072,"byteOffset":54216},{"buffer":0,"byteLength":12912,"byteOffset":72288}],"buffers":[{"byteLength":85200,"uri":"data:application/octet-stream;base64,"}],"__mtime__":"2020-07-05T13:01:24.000Z"}
