{"asset":{"generator":"Khronos glTF Blender I/O v1.2.75","version":"2.0"},"meshes":[{"name":"LOD0","primitives":[{"attributes":{"POSITION":0,"NORMAL":1,"TEXCOORD_0":2},"indices":3,"mode":4}]}],"accessors":[{"bufferView":0,"componentType":5126,"count":2801,"type":"VEC3","max":[1.2062387466430664,1.5894345045089722,1.1598176956176758],"min":[-1.0981125831604004,-0.14725852012634277,-1.2081708908081055]},{"bufferView":1,"componentType":5126,"count":2801,"type":"VEC3"},{"bufferView":2,"componentType":5126,"count":2801,"type":"VEC2"},{"bufferView":3,"componentType":5123,"count":4584,"type":"SCALAR"}],"bufferViews":[{"buffer":0,"byteLength":33612,"byteOffset":0},{"buffer":0,"byteLength":33612,"byteOffset":33612},{"buffer":0,"byteLength":22408,"byteOffset":67224},{"buffer":0,"byteLength":9168,"byteOffset":89632}],"buffers":[{"byteLength":98800,"uri":"data:application/octet-stream;base64,"}],"__mtime__":"2020-07-05T13:02:34.000Z"}
