{"asset":{"generator":"Khronos glTF Blender I/O v1.2.75","version":"2.0"},"meshes":[{"name":"LOD0","primitives":[{"attributes":{"POSITION":0,"NORMAL":1,"TEXCOORD_0":2},"indices":3,"mode":4}]}],"accessors":[{"bufferView":0,"componentType":5126,"count":5581,"type":"VEC3","max":[5.223997116088867,12.38304328918457,4.767601013183594],"min":[-5.0172576904296875,-0.5857820510864258,-5.136018753051758]},{"bufferView":1,"componentType":5126,"count":5581,"type":"VEC3"},{"bufferView":2,"componentType":5126,"count":5581,"type":"VEC2"},{"bufferView":3,"componentType":5123,"count":11268,"type":"SCALAR"}],"bufferViews":[{"buffer":0,"byteLength":66972,"byteOffset":0},{"buffer":0,"byteLength":66972,"byteOffset":66972},{"buffer":0,"byteLength":44648,"byteOffset":133944},{"buffer":0,"byteLength":22536,"byteOffset":178592}],"buffers":[{"byteLength":201128,"uri":"data:application/octet-stream;base64,"}],"__mtime__":"2020-07-05T13:01:05.000Z"}
