{"asset":{"generator":"Khronos glTF Blender I/O v1.2.75","version":"2.0"},"meshes":[{"name":"LOD0","primitives":[{"attributes":{"POSITION":0,"NORMAL":1,"TEXCOORD_0":2},"indices":3,"mode":4}]}],"accessors":[{"bufferView":0,"componentType":5126,"count":2222,"type":"VEC3","max":[4.360065460205078,12.381596565246582,4.02459716796875],"min":[-3.984490394592285,-0.5263128280639648,-4.199484825134277]},{"bufferView":1,"componentType":5126,"count":2222,"type":"VEC3"},{"bufferView":2,"componentType":5126,"count":2222,"type":"VEC2"},{"bufferView":3,"componentType":5123,"count":7626,"type":"SCALAR"}],"bufferViews":[{"buffer":0,"byteLength":26664,"byteOffset":0},{"buffer":0,"byteLength":26664,"byteOffset":26664},{"buffer":0,"byteLength":17776,"byteOffset":53328},{"buffer":0,"byteLength":15252,"byteOffset":71104}],"buffers":[{"byteLength":86356,"uri":"data:application/octet-stream;base64,"}],"__mtime__":"2020-07-05T13:03:02.000Z"}
