{"asset":{"generator":"Khronos glTF Blender I/O v1.2.75","version":"2.0"},"meshes":[{"name":"LOD0","primitives":[{"attributes":{"POSITION":0,"NORMAL":1,"TEXCOORD_0":2},"indices":3,"mode":4}]}],"accessors":[{"bufferView":0,"componentType":5126,"count":956,"type":"VEC3","max":[0.8608286380767822,1.8703558444976807,0.824044942855835],"min":[-0.8583619594573975,-0.13702243566513062,-0.8738315105438232]},{"bufferView":1,"componentType":5126,"count":956,"type":"VEC3"},{"bufferView":2,"componentType":5126,"count":956,"type":"VEC2"},{"bufferView":3,"componentType":5123,"count":2832,"type":"SCALAR"}],"bufferViews":[{"buffer":0,"byteLength":11472,"byteOffset":0},{"buffer":0,"byteLength":11472,"byteOffset":11472},{"buffer":0,"byteLength":7648,"byteOffset":22944},{"buffer":0,"byteLength":5664,"byteOffset":30592}],"buffers":[{"byteLength":36256,"uri":"data:application/octet-stream;base64,"}],"__mtime__":"2020-07-05T13:02:15.000Z"}
