{"asset":{"generator":"Khronos glTF Blender I/O v1.2.75","version":"2.0"},"meshes":[{"name":"SGS_Tree","primitives":[{"attributes":{"POSITION":0,"NORMAL":1,"TEXCOORD_0":2},"indices":3,"mode":4},{"attributes":{"POSITION":4,"NORMAL":5,"TEXCOORD_0":6},"indices":7,"mode":4}]}],"accessors":[{"bufferView":0,"componentType":5126,"count":5184,"type":"VEC3","min":[-13.650100708007812,-0.2700004577636719,-14.004512786865234],"max":[14.588563919067383,28.829387664794922,13.198200225830078]},{"bufferView":1,"componentType":5126,"count":5184,"type":"VEC3"},{"bufferView":2,"componentType":5126,"count":5184,"type":"VEC2"},{"bufferView":3,"componentType":5123,"count":15552,"type":"SCALAR"},{"bufferView":4,"componentType":5126,"count":1437,"type":"VEC3","min":[-13.650100708007812,-0.2700004577636719,-14.004512786865234],"max":[14.588563919067383,28.829387664794922,13.198200225830078]},{"bufferView":5,"componentType":5126,"count":1437,"type":"VEC3"},{"bufferView":6,"componentType":5126,"count":1437,"type":"VEC2"},{"bufferView":7,"componentType":5123,"count":5070,"type":"SCALAR"}],"bufferViews":[{"buffer":0,"byteOffset":0,"byteLength":62208},{"buffer":0,"byteOffset":62208,"byteLength":62208},{"buffer":0,"byteOffset":124416,"byteLength":41472},{"buffer":0,"byteOffset":165888,"byteLength":31104},{"buffer":1,"byteOffset":0,"byteLength":17244},{"buffer":1,"byteOffset":17244,"byteLength":17244},{"buffer":1,"byteOffset":34488,"byteLength":11496},{"buffer":1,"byteOffset":45984,"byteLength":10140}],"buffers":[{"byteLength":196992,"uri":"data:application/octet-stream;base64,"},{"byteLength":56124,"uri":"data:application/octet-stream;base64,"}]}
