{"asset":{"generator":"Khronos glTF Blender I/O v1.2.75","version":"2.0"},"meshes":[{"name":"LOD0","primitives":[{"attributes":{"POSITION":0,"NORMAL":1,"TEXCOORD_0":2},"indices":3,"mode":4}]}],"accessors":[{"bufferView":0,"componentType":5126,"count":1602,"type":"VEC3","max":[1.6927932500839233,8.100852966308594,1.6089832782745361],"min":[-1.480350136756897,-0.2541992664337158,-1.691615343093872]},{"bufferView":1,"componentType":5126,"count":1602,"type":"VEC3"},{"bufferView":2,"componentType":5126,"count":1602,"type":"VEC2"},{"bufferView":3,"componentType":5123,"count":4731,"type":"SCALAR"}],"bufferViews":[{"buffer":0,"byteLength":19224,"byteOffset":0},{"buffer":0,"byteLength":19224,"byteOffset":19224},{"buffer":0,"byteLength":12816,"byteOffset":38448},{"buffer":0,"byteLength":9462,"byteOffset":51264}],"buffers":[{"byteLength":60726,"uri":"data:application/octet-stream;base64,"}],"__mtime__":"2020-07-05T13:01:34.000Z"}
