{"asset":{"generator":"Khronos glTF Blender I/O v1.2.75","version":"2.0"},"meshes":[{"name":"LOD0","primitives":[{"attributes":{"POSITION":0,"NORMAL":1,"TEXCOORD_0":2},"indices":3,"mode":4}]}],"accessors":[{"bufferView":0,"componentType":5126,"count":2606,"type":"VEC3","max":[0.9796422123908997,1.6915313005447388,0.9288208484649658],"min":[-0.9387151598930359,-0.11779439449310303,-0.9649026393890381]},{"bufferView":1,"componentType":5126,"count":2606,"type":"VEC3"},{"bufferView":2,"componentType":5126,"count":2606,"type":"VEC2"},{"bufferView":3,"componentType":5123,"count":4938,"type":"SCALAR"}],"bufferViews":[{"buffer":0,"byteLength":31272,"byteOffset":0},{"buffer":0,"byteLength":31272,"byteOffset":31272},{"buffer":0,"byteLength":20848,"byteOffset":62544},{"buffer":0,"byteLength":9876,"byteOffset":83392}],"buffers":[{"byteLength":93268,"uri":"data:application/octet-stream;base64,"}],"__mtime__":"2020-07-05T13:01:48.000Z"}
